<?xml version="1.0" encoding="UTF-8" standalone="no"?>
<!-- Created with Inkscape (http://www.inkscape.org/) -->
<svg
   xmlns:svg="http://www.w3.org/2000/svg"
   xmlns="http://www.w3.org/2000/svg"
   version="1.0"
   width="1559"
   height="1089"
   id="svg2">
  <defs
     id="defs4" />
  <g
     transform="translate(942.35712,443.56638)"
     id="layer1">
    <path
       d="M 681.34375,1.25 C 678.689,1.1823106 676.875,2.28125 676.875,2.28125 L 624.25,60.5 L 624.59375,39.875 L 619.78125,35.1875 L 614.40625,35.96875 L 609.96875,29.46875 L 604.84375,35.03125 L 599.1875,35.3125 L 604.1875,40.40625 L 603.71875,51.125 L 609.28125,61.03125 L 608.9375,65.53125 L 599.34375,74.34375 L 599.125,80.5625 L 595.1875,88.15625 L 590.5625,94.375 L 590.0625,99.9375 L 585.1875,104.96875 L 585.09375,115.40625 L 579.75,119.625 L 579.84375,133.96875 L 585.3125,138.15625 L 575.25,148.625 L 565.4375,138.21875 L 486.96875,237.03125 L 487.15625,256.96875 L 478.03125,246.21875 L 365.96875,246.28125 L 355.90625,226.71875 L 317.5625,217.40625 L 264.28125,230.75 L 268.46875,212.5625 L 298.625,212.5625 L 308.15625,207.46875 L 313.125,198.4375 L 313.5625,187.21875 L 321.875,178.4375 L 313,168.5 L 327.03125,163.5625 L 321.6875,149.4375 L 336.78125,148.9375 L 342.3125,138.40625 L 318,109.21875 C 318,109.21875 322.15498,105.1829 322.28125,102.53125 L 303.09375,41.1875 L 303.09375,35.46875 L 292.21875,24.875 L 288.40625,24.9375 L 288.25,21.125 L 268.4375,21.15625 L 259.75,16.09375 L 233.03125,16.21875 L 225.34375,20.78125 L 213.34375,20.875 L 206.6875,24.90625 L 193.8125,25.1875 C 193.8125,25.1875 185.61453,28.716528 180.4375,35.15625 C 180.4375,35.156249 168.86913,39.129123 166.34375,44.9375 L 166.21875,50.0625 L 161.40625,50.46875 L 161.25,56 L 156.46875,60.5625 L 156.375,75.5625 L 151.03125,85.46875 L 160.625,104.21875 C 160.625,104.21875 166.55314,116.14816 170.59375,120.0625 L 170.4375,130.1875 L 174.84375,138.28125 L 175.78125,148.65625 L 180.125,153.25 L 180.625,183.84375 L 175.375,192.375 L 175.375,201.1875 L 166.1875,196.4375 L 165.75,196.1875 L 165.53125,196.65625 L 146.75,236.28125 L 147.65625,236.71875 L 166.1875,197.53125 L 175.28125,202.28125 L 175.4375,201.96875 L 244.125,227.375 L 229.28125,256.875 L 248.875,280.96875 L 244.46875,288.8125 L 245.71875,441.84375 L 214.28125,457.5625 L 215,416.15625 L 207.15625,371.84375 L 190.5,301.71875 L 171.71875,262.34375 L 146.4375,236.1875 L 58.78125,275.5625 L 0.46875,489 L 40.21875,541.125 L 72.875,541.15625 L 72.875,1088.2812 L 613.5625,1088.2812 L 613.5625,399.03125 L 689.28125,354 L 498.09375,354.46875 L 498.28125,348.3125 L 516.125,331.3125 L 530,331.125 L 638.5625,207.5625 L 619.625,188.0625 L 633.375,173.0625 L 619.4375,163.90625 L 629.40625,164.65625 L 632.875,158.5 L 641.96875,159.75 L 682.40625,114.5625 L 682.5625,94.3125 L 678.28125,80.5 L 658.46875,60.15625 L 681.0625,30.28125 L 682.9375,25.3125 L 682.5,21.875 L 688.15625,12.25 C 688.15622,12.25 688.94765,9.0228432 687.9375,6.75 L 682.53125,1.375 C 682.12087,1.3118655 681.723,1.2596699 681.34375,1.25 z M 245,226.8125 L 263.75,231.0625 L 264.125,231.15625 L 264.125,231.53125 L 264.84375,241.4375 L 263.84375,241.5 L 263.1875,231.9375 L 244.78125,227.78125 L 245,226.8125 z M 264.28125,242.9375 L 285,277.9375 L 292.5,294 L 291.78125,317.21875 L 302.5,376.84375 L 302.5,413.65625 L 283.5625,422.9375 L 283.5625,355.78125 L 278.9375,319 L 258.5625,271.84375 L 264.28125,242.9375 z "
       transform="translate(-942.35712,-443.56638)"
       style="fill:#00007d;fill-opacity:1;stroke:none;stroke-width:0.92400002;stroke-linecap:butt;stroke-linejoin:miter;stroke-miterlimit:5;stroke-dasharray:none;stroke-opacity:1"
       id="rect2290" />
    <path
       d="M 1311.2812,10.78125 L 1311.2188,25.71875 L 1301.4688,35.71875 C 1297.9655,44.97725 1287.1565,55.031251 1287.1562,55.03125 L 1281.5312,55.09375 L 1281.2188,65.46875 C 1272.9612,74.10168 1281.25,78.906251 1281.25,78.90625 L 1280.9688,91.125 L 1257.8438,128.59375 L 1257.7188,138.4375 L 1278.3125,143.84375 L 1272.6875,153.625 L 1285.3125,162.90625 L 1280.9375,162.8125 L 1276.8125,173.21875 L 1286.6875,177.96875 L 1286.2812,192.4375 L 1301.6562,207.78125 L 1335.7188,202.75 L 1339.8438,221.46875 L 1281.375,231.71875 L 1257.0938,277.0625 L 1252.75,314.53125 L 1244.1562,305.3125 L 1233.625,305.34375 L 1229.25,300.53125 L 1199.8438,300.4375 L 1194.9688,304.875 L 1160.6875,304.96875 L 1160.6875,310.03125 L 1154.7812,309.90625 L 1140.5625,304.4375 L 1101.75,349.75 L 922.21875,349.75 L 990.03125,393.625 L 990.03125,533.65625 L 990.03125,625.625 L 990.03125,717.5625 L 990.03125,809.53125 L 990.03125,901.5 L 990.03125,993.4375 L 990.03125,1085.4062 L 1545.6875,1085.4062 L 1545.6875,533.5 L 1559.6875,480.9375 L 1546.9375,349.75 L 1540.6562,281.4375 L 1447.0938,226.84375 C 1429.0772,234.60087 1424.125,250.3125 1424.125,250.3125 C 1407.8601,263.32445 1406.191,284.87178 1402.4375,288.375 C 1402.4375,288.375 1403.5439,298.94897 1389.7812,320.46875 C 1389.7812,320.46875 1388.7846,344.99562 1385.2812,349.75 L 1384.5312,380.03125 L 1355.75,365 L 1355.75,349.75 L 1355.7812,281.125 L 1350.875,276.375 L 1351.125,270.78125 L 1364.8125,251.5 L 1359.9688,227.46875 L 1423.2812,192.40625 L 1423.5625,192.875 L 1432.7812,187.625 L 1446.8438,226.875 L 1447.8125,226.53125 L 1433.5312,186.75 L 1433.3438,186.1875 L 1432.8125,186.5 L 1423.5625,191.71875 L 1423.75,164 L 1429.125,154.75 L 1428.9062,127.4375 L 1447.9062,80.21875 L 1414.8125,25.9375 L 1385.625,10.875 L 1311.2812,10.78125 z M 1340.25,221.375 L 1340.625,221.46875 L 1358.875,226.46875 L 1358.625,227.4375 L 1340.6875,222.53125 L 1331.875,235.75 L 1331.0625,235.1875 L 1340.0625,221.6875 L 1340.25,221.375 z M 1330.4688,236.46875 L 1340.7188,266.75 L 1329.2188,277 L 1320.4688,295.28125 L 1320.4688,306.53125 L 1316.4688,319.53125 L 1316.4688,345.0625 L 1302.0625,330.6875 L 1302.0625,295.28125 L 1311.7188,272.5 L 1330.4688,236.46875 z "
       transform="translate(-942.35712,-443.56638)"
       style="fill:#00007d;fill-opacity:1;stroke:none;stroke-width:0.95499998;stroke-linecap:butt;stroke-linejoin:miter;stroke-miterlimit:5;stroke-dasharray:none;stroke-opacity:1"
       id="rect2292" />
  </g>
</svg>
